# xmcd CD database file
#
# Track frame offsets:
#	150
#	16225
#	34977
#	50330
#
# Disc length: 883 seconds
#
# Revision: 0
# Processed by: cddbd v1.5PL3 Copyright (c) Steve Scherf et al.
# Submitted via: CDex 1.50
#
DISCID=29037104
DTITLE=Bluem of Youth - Lover's slit
DYEAR=1900
DGENRE=Rock
TTITLE0=Lover's slit
TTITLE1=fish
TTITLE2=Lover's slit
TTITLE3=Lover's slit
EXTD=
EXTT0=
EXTT1=
EXTT2=
EXTT3=
PLAYORDER=
